<svg xmlns="http://www.w3.org/2000/svg" width="760.521" height="756.308" viewBox="0 0 760.521 756.308">
  <g id="Group_738" data-name="Group 738" transform="translate(0)">
    <g id="Group_735" data-name="Group 735" transform="translate(7.747 0)">
      <g id="Group_732" data-name="Group 732" transform="matrix(1, 0.017, -0.017, 1, 4.973, 421.992)">
        <path id="Path_3931" data-name="Path 3931" d="M205.659,284.959a1.115,1.115,0,0,1-.5-.119A377.52,377.52,0,0,1,.011,1.284,1.123,1.123,0,0,1,2.235.963,375.263,375.263,0,0,0,206.162,282.835a1.121,1.121,0,0,1-.5,2.124Z" transform="translate(0 0)" fill="#1a1a1a"/>
      </g>
      <g id="Group_733" data-name="Group 733" transform="translate(310.094 722.94)">
        <path id="Path_3932" data-name="Path 3932" d="M750.207-37.7a381.339,381.339,0,0,1-64.226-5.44,1.125,1.125,0,0,1-.915-1.3,1.118,1.118,0,0,1,1.3-.915,378.939,378.939,0,0,0,63.845,5.409,372.9,372.9,0,0,0,146.74-29.771,1.119,1.119,0,0,1,1.469.592,1.119,1.119,0,0,1-.594,1.472A375.107,375.107,0,0,1,750.207-37.7Z" transform="translate(-685.05 69.807)" fill="#5eb91e"/>
      </g>
      <g id="Group_734" data-name="Group 734" transform="translate(2.471)">
        <path id="Path_3933" data-name="Path 3933" d="M1067.88,333.114a1.121,1.121,0,0,1-.437-2.154A374.879,374.879,0,0,0,1295.982-14.547c0-206.929-168.351-375.279-375.279-375.279-185.462,0-341.3,132.7-370.55,315.533a1.119,1.119,0,0,1-1.285.931,1.123,1.123,0,0,1-.931-1.285A377.637,377.637,0,0,1,674.6-300.836,377.466,377.466,0,0,1,920.7-392.07c208.167,0,377.523,169.355,377.523,377.523a377.121,377.121,0,0,1-229.907,347.572A1.106,1.106,0,0,1,1067.88,333.114Z" transform="translate(-547.922 392.07)" fill="#5eb91e"/>
      </g>
    </g>
    <g id="Group_736" data-name="Group 736" transform="translate(297.936 734.22)">
      <path id="Path_3934" data-name="Path 3934" d="M687.221-42.691a11.057,11.057,0,0,1-11.044-11.044,11.055,11.055,0,0,1,11.044-11.044,11.055,11.055,0,0,1,11.042,11.044A11.056,11.056,0,0,1,687.221-42.691Zm0-19.844a8.81,8.81,0,0,0-8.8,8.8,8.811,8.811,0,0,0,8.8,8.8,8.809,8.809,0,0,0,8.8-8.8A8.808,8.808,0,0,0,687.221-62.536Z" transform="translate(-676.177 64.779)" fill="#5eb91e"/>
    </g>
    <g id="Group_737" data-name="Group 737" transform="translate(0 317.406)">
      <path id="Path_3935" data-name="Path 3935" d="M554.413-228.493a11.057,11.057,0,0,1-11.046-11.044,11.057,11.057,0,0,1,11.046-11.044,11.055,11.055,0,0,1,11.044,11.044A11.055,11.055,0,0,1,554.413-228.493Zm0-19.844a8.811,8.811,0,0,0-8.8,8.8,8.811,8.811,0,0,0,8.8,8.8,8.811,8.811,0,0,0,8.8-8.8A8.811,8.811,0,0,0,554.413-248.338Z" transform="translate(-543.367 250.581)" fill="#5eb91e"/>
    </g>
  </g>
</svg>
