<?xml version="1.0" encoding="UTF-8"?>
<svg xmlns="http://www.w3.org/2000/svg" width="220" height="47.741" viewBox="0 0 220 47.741">
  <g id="Group_769" data-name="Group 769" transform="translate(-2294.085 -204.279)">
    <path id="Path_3979" data-name="Path 3979" d="M2308.08,213.871a12.857,12.857,0,0,1,4.813.892,11.968,11.968,0,0,1,3.875,2.466,11.049,11.049,0,0,1,2.56,3.757,12.864,12.864,0,0,1,0,9.534,11.29,11.29,0,0,1-2.56,3.78,11.75,11.75,0,0,1-3.875,2.489,12.837,12.837,0,0,1-4.813.892h-4.931v9.064h-9.064V213.871ZM2307,229.745a3.829,3.829,0,0,0,2.865-1.1,4.37,4.37,0,0,0,0-5.753,3.787,3.787,0,0,0-2.865-1.127h-3.851v7.984Z" transform="translate(0 -4.824)" fill="#1a1a1a"></path>
    <path id="Path_3980" data-name="Path 3980" d="M2370.651,228.7v8.031h-3.381a4.5,4.5,0,0,0-3.358,1.057,4.968,4.968,0,0,0-1.01,3.5V254.2h-8.735V228.843h5.823l1.362,2.818a8.376,8.376,0,0,1,3.029-2.254,10.157,10.157,0,0,1,3.969-.7Z" transform="translate(-30.213 -12.282)" fill="#1a1a1a"></path>
    <path id="Path_3981" data-name="Path 3981" d="M2404.414,254.336a15.715,15.715,0,0,1-5.716-1.01,13.584,13.584,0,0,1-4.516-2.818,12.755,12.755,0,0,1-2.964-4.274,14.426,14.426,0,0,1,0-10.849,12.761,12.761,0,0,1,2.964-4.274,13.616,13.616,0,0,1,4.516-2.818,16.682,16.682,0,0,1,11.431,0,13.6,13.6,0,0,1,7.456,17.94,13.075,13.075,0,0,1-7.456,7.092A15.715,15.715,0,0,1,2404.414,254.336Zm-.023-7.843a5.222,5.222,0,0,0,3.921-1.573,6.3,6.3,0,0,0,0-8.219,5.226,5.226,0,0,0-3.921-1.573,5.3,5.3,0,0,0-3.945,1.573,6.224,6.224,0,0,0,0,8.219A5.3,5.3,0,0,0,2404.391,246.493Z" transform="translate(-48.313 -11.569)" fill="#1a1a1a"></path>
    <path id="Path_3982" data-name="Path 3982" d="M2480.218,228.178v22.543a14.511,14.511,0,0,1-.939,5.377,11.343,11.343,0,0,1-2.7,4.063,11.733,11.733,0,0,1-4.3,2.583,16.912,16.912,0,0,1-5.635.892,14.98,14.98,0,0,1-8.994-2.56,11.013,11.013,0,0,1-4.438-7.068h8.454a3.246,3.246,0,0,0,1.855,1.925,7.182,7.182,0,0,0,3.03.657,5.587,5.587,0,0,0,3.734-1.291,4.455,4.455,0,0,0,1.526-3.593v-.751a11.259,11.259,0,0,1-3.076,1.432,12.437,12.437,0,0,1-3.546.493,13.055,13.055,0,0,1-5.048-.963,12.012,12.012,0,0,1-4.015-2.677,12.478,12.478,0,0,1-2.654-4.039,13.778,13.778,0,0,1,0-10.121,12.422,12.422,0,0,1,2.654-4.062,12.044,12.044,0,0,1,4.015-2.677,13.074,13.074,0,0,1,5.048-.962,12.093,12.093,0,0,1,4.368.775,13.016,13.016,0,0,1,3.663,2.137l1.081-2.113ZM2466.646,245.7a5.148,5.148,0,0,0,3.9-1.573,5.58,5.58,0,0,0,1.5-4.015,5.438,5.438,0,0,0-1.5-3.945,5.648,5.648,0,0,0-7.773,0,5.387,5.387,0,0,0-1.526,3.945,5.574,5.574,0,0,0,1.5,4.015A5.148,5.148,0,0,0,2466.646,245.7Z" transform="translate(-79.666 -11.617)" fill="#1a1a1a"></path>
    <path id="Path_3983" data-name="Path 3983" d="M2543.065,228.131v25.36h-6.716l-.752-1.785a12.555,12.555,0,0,1-3.522,1.973,11.931,11.931,0,0,1-4.133.7,13.872,13.872,0,0,1-5.353-1.01,12.4,12.4,0,0,1-4.2-2.818,13.173,13.173,0,0,1-2.771-4.3,14.357,14.357,0,0,1-1.01-5.448,14.055,14.055,0,0,1,1.01-5.378,12.98,12.98,0,0,1,2.771-4.251,12.593,12.593,0,0,1,4.2-2.794,13.871,13.871,0,0,1,5.353-1.01,12.285,12.285,0,0,1,4.2.7,11.912,11.912,0,0,1,3.545,2.02l.892-1.973Zm-13.948,18.5a5.391,5.391,0,0,0,4.039-1.644,5.693,5.693,0,0,0,1.6-4.133,6.08,6.08,0,0,0-.423-2.278,5.572,5.572,0,0,0-1.174-1.831,5.5,5.5,0,0,0-1.785-1.221,5.63,5.63,0,0,0-2.254-.446,5.448,5.448,0,0,0-4.086,1.644,6.147,6.147,0,0,0,0,8.265A5.444,5.444,0,0,0,2529.117,246.635Z" transform="translate(-110.892 -11.617)" fill="#1a1a1a"></path>
    <path id="Path_3984" data-name="Path 3984" d="M2597.482,239.185v7.655h-6.011a8.3,8.3,0,0,1-9.017-9.064V228.2h-4.65v-2.02l11.365-12.117h1.785v7.42h6.387V228.2h-6.153v8.077a2.682,2.682,0,0,0,2.912,2.912Z" transform="translate(-142.672 -4.918)" fill="#1a1a1a"></path>
    <path id="Path_3985" data-name="Path 3985" d="M2625.605,228.985h8.735v25.361h-8.735Z" transform="translate(-166.71 -12.424)" fill="#1a1a1a"></path>
    <g id="Group_768" data-name="Group 768" transform="translate(2469.938 216.59)">
      <path id="Path_3986" data-name="Path 3986" d="M2694.881,229.043l-5.765,5.862,4.875,4.917,10.738-10.78Z" transform="translate(-2668.585 -229.043)" fill="#1a1a1a"></path>
      <path id="Path_3987" data-name="Path 3987" d="M2647.818,229.043l10.731,10.78,4.851-4.894-5.751-5.885Z" transform="translate(-2647.818 -229.043)" fill="#1a1a1a"></path>
    </g>
    <path id="Path_3988" data-name="Path 3988" d="M2659.886,260.239l9.513-9.881,9.447,9.876.184-.184,4.785-4.846-13.09-13.2h0l-.075-.076-.821-.829h0l-.458-.461-.458.461h0L2654.922,255.2l4.785,4.846" transform="translate(-181.452 -18.282)" fill="#5eb91e"></path>
    <circle id="Ellipse_146" data-name="Ellipse 146" cx="4.401" cy="4.401" r="4.401" transform="translate(2458.786 204.279)" fill="#1a1a1a"></circle>
    <circle id="Ellipse_147" data-name="Ellipse 147" cx="4.401" cy="4.401" r="4.401" transform="translate(2505.283 233.155)" fill="#1a1a1a"></circle>
  </g>
</svg>
