<svg xmlns="http://www.w3.org/2000/svg" width="138.865" height="21.885"
                      viewBox="0 0 138.865 21.885">
                      <g id="Group_766" data-name="Group 766" transform="translate(-337 -7004.06)">
                        <path id="Icon_awesome-star" data-name="Icon awesome-star"
                          d="M11.647.76,8.857,6.419l-6.244.91a1.368,1.368,0,0,0-.756,2.334l4.517,4.4L5.3,20.283a1.367,1.367,0,0,0,1.983,1.44l5.586-2.936,5.586,2.936a1.368,1.368,0,0,0,1.983-1.44l-1.068-6.218,4.517-4.4a1.368,1.368,0,0,0-.756-2.334l-6.244-.91L14.1.76a1.369,1.369,0,0,0-2.453,0Z"
                          transform="translate(335.559 7004.061)" fill="#d8c626" />
                        <path id="Icon_awesome-star-2" data-name="Icon awesome-star"
                          d="M11.647.76,8.857,6.419l-6.244.91a1.368,1.368,0,0,0-.756,2.334l4.517,4.4L5.3,20.283a1.367,1.367,0,0,0,1.983,1.44l5.586-2.936,5.586,2.936a1.368,1.368,0,0,0,1.983-1.44l-1.068-6.218,4.517-4.4a1.368,1.368,0,0,0-.756-2.334l-6.244-.91L14.1.76a1.369,1.369,0,0,0-2.453,0Z"
                          transform="translate(364.559 7004.061)" fill="#d8c626" />
                        <path id="Icon_awesome-star-3" data-name="Icon awesome-star"
                          d="M11.647.76,8.857,6.419l-6.244.91a1.368,1.368,0,0,0-.756,2.334l4.517,4.4L5.3,20.283a1.367,1.367,0,0,0,1.983,1.44l5.586-2.936,5.586,2.936a1.368,1.368,0,0,0,1.983-1.44l-1.068-6.218,4.517-4.4a1.368,1.368,0,0,0-.756-2.334l-6.244-.91L14.1.76a1.369,1.369,0,0,0-2.453,0Z"
                          transform="translate(393.559 7004.061)" fill="#d8c626" />
                        <path id="Icon_awesome-star-4" data-name="Icon awesome-star"
                          d="M11.647.76,8.857,6.419l-6.244.91a1.368,1.368,0,0,0-.756,2.334l4.517,4.4L5.3,20.283a1.367,1.367,0,0,0,1.983,1.44l5.586-2.936,5.586,2.936a1.368,1.368,0,0,0,1.983-1.44l-1.068-6.218,4.517-4.4a1.368,1.368,0,0,0-.756-2.334l-6.244-.91L14.1.76a1.369,1.369,0,0,0-2.453,0Z"
                          transform="translate(422.559 7004.061)" fill="#d8c626" />
                        <path id="Icon_awesome-star-5" data-name="Icon awesome-star"
                          d="M11.647.76,8.857,6.419l-6.244.91a1.368,1.368,0,0,0-.756,2.334l4.517,4.4L5.3,20.283a1.367,1.367,0,0,0,1.983,1.44l5.586-2.936,5.586,2.936a1.368,1.368,0,0,0,1.983-1.44l-1.068-6.218,4.517-4.4a1.368,1.368,0,0,0-.756-2.334l-6.244-.91L14.1.76a1.369,1.369,0,0,0-2.453,0Z"
                          transform="translate(451.559 7004.061)" fill="#d8c626" />
                      </g>
                    </svg>